<?xml version="1.0" encoding="UTF-8" standalone="no"?>
<svg
   xmlns:dc="http://purl.org/dc/elements/1.1/"
   xmlns:cc="http://creativecommons.org/ns#"
   xmlns:rdf="http://www.w3.org/1999/02/22-rdf-syntax-ns#"
   xmlns:svg="http://www.w3.org/2000/svg"
   xmlns="http://www.w3.org/2000/svg"
   xmlns:sodipodi="http://sodipodi.sourceforge.net/DTD/sodipodi-0.dtd"
   xmlns:inkscape="http://www.inkscape.org/namespaces/inkscape"
   version="1.1"
   id="svg2"
   xml:space="preserve"
   width="755.90533"
   height="755.90533"
   viewBox="0 0 755.90533 755.90533"
   sodipodi:docname="kakaoicon.ai"><metadata
     id="metadata8"><rdf:RDF><cc:Work
         rdf:about=""><dc:format>image/svg+xml</dc:format><dc:type
           rdf:resource="http://purl.org/dc/dcmitype/StillImage" /></cc:Work></rdf:RDF></metadata><defs
     id="defs6"><clipPath
       clipPathUnits="userSpaceOnUse"
       id="clipPath18"><path
         d="M 0,566.929 H 566.929 V 0 H 0 Z"
         id="path16" /></clipPath></defs><sodipodi:namedview
     pagecolor="#ffffff"
     bordercolor="#666666"
     borderopacity="1"
     objecttolerance="10"
     gridtolerance="10"
     guidetolerance="10"
     inkscape:pageopacity="0"
     inkscape:pageshadow="2"
     inkscape:window-width="640"
     inkscape:window-height="480"
     id="namedview4" /><g
     id="g10"
     inkscape:groupmode="layer"
     inkscape:label="kakaoicon"
     transform="matrix(1.3333333,0,0,-1.3333333,0,755.90533)"><g
       id="g12"><g
         id="g14"
         clip-path="url(#clipPath18)"><g
           id="g20"
           transform="translate(379.8424,141.7327)"><path
             d="m 0,0 h -192.756 c -25.048,0 -45.354,20.306 -45.354,45.354 V 238.11 c 0,25.048 20.306,45.354 45.354,45.354 H 0 c 25.049,0 45.354,-20.306 45.354,-45.354 V 45.354 C 45.354,20.306 25.049,0 0,0"
             style="fill:#f9e000;fill-opacity:1;fill-rule:nonzero;stroke:none"
             id="path22" /></g><g
           id="g24"
           transform="translate(283.465,373.7063)"><path
             d="m 0,0 c -55.95,0 -101.3,-36.061 -101.3,-80.536 0,-27.57 17.423,-51.901 43.992,-66.419 l -7.323,-39.261 c -0.364,-1.953 1.794,-3.387 3.453,-2.294 l 43.514,28.664 c 0,0 11.637,-1.225 17.664,-1.225 55.945,0 101.299,36.057 101.299,80.535 C 101.299,-36.061 55.945,0 0,0"
             style="fill:#3c1e1e;fill-opacity:1;fill-rule:nonzero;stroke:none"
             id="path26" /></g><g
           id="g28"
           transform="translate(242.441,315.6194)"><path
             d="m 0,0 h -29.195 c -2.746,0 -4.97,-2.241 -4.97,-5 0,-2.766 2.224,-5.008 4.97,-5.008 h 9.489 v -35.249 c 0,-1.278 0.518,-2.535 1.43,-3.448 0.89,-0.912 2.138,-1.43 3.414,-1.43 h 1.061 c 1.269,0 2.513,0.518 3.406,1.425 0.91,0.916 1.429,2.171 1.429,3.453 v 35.249 H 0 c 2.746,0 4.969,2.242 4.969,5.008 0,2.759 -2.223,5 -4.969,5"
             style="fill:#f9e000;fill-opacity:1;fill-rule:nonzero;stroke:none"
             id="path30" /></g><g
           id="g32"
           transform="translate(310.7604,274.8958)"><path
             d="m 0,0 h -13.566 v 35.996 c 0,3.002 -2.417,5.428 -5.391,5.428 -2.974,0 -5.39,-2.426 -5.39,-5.428 V -2.806 -4.544 c 0,-2.509 2.018,-4.546 4.51,-4.546 L 0,-9.09 c 2.497,0 4.512,2.037 4.512,4.546 C 4.512,-2.038 2.497,0 0,0"
             style="fill:#f9e000;fill-opacity:1;fill-rule:nonzero;stroke:none"
             id="path34" /></g><g
           id="g36"
           transform="translate(354.3287,273.2425)"><path
             d="m 0,0 -15.13,20.028 13.673,13.78 c 1.851,1.862 1.851,4.89 0.004,6.753 -1.853,1.866 -4.857,1.866 -6.707,0 L -25.086,23.508 v 14.141 c 0,3.002 -2.413,5.429 -5.387,5.429 -2.973,0 -5.391,-2.427 -5.391,-5.429 v -39.99 c 0,-3.004 2.418,-5.436 5.391,-5.436 2.974,0 5.387,2.432 5.387,5.436 V 9.995 l 3.076,3.099 14.31,-18.928 c 1.591,-2.144 4.618,-2.58 6.744,-0.963 C 1.174,-5.187 1.604,-2.142 0,0"
             style="fill:#f9e000;fill-opacity:1;fill-rule:nonzero;stroke:none"
             id="path38" /></g><g
           id="g40"
           transform="translate(254.8541,284.9314)"><path
             d="m 0,0 6.69,19.239 c 0.077,0 0.141,-0.021 0.218,-0.021 L 13.592,0 Z m 28.336,-12.985 -14.55,40.112 c 0,0 -0.036,0.028 -0.049,0.041 -0.931,2.443 -3.617,4.221 -6.819,4.221 C 6.13,31.389 5.342,31.28 4.585,31.06 3.872,30.853 3.188,30.545 2.564,30.142 1.976,29.76 1.441,29.291 0.999,28.745 0.705,28.382 0.454,27.982 0.253,27.561 0.075,27.187 -0.639,25.136 -0.872,24.505 c -0.083,-0.223 -0.166,-0.446 -0.248,-0.67 -0.099,-0.266 -0.197,-0.533 -0.296,-0.8 -0.114,-0.306 -0.227,-0.614 -0.341,-0.92 -0.127,-0.344 -0.254,-0.688 -0.382,-1.032 l -0.419,-1.132 c -0.15,-0.408 -0.301,-0.816 -0.452,-1.224 -0.161,-0.435 -0.322,-0.87 -0.483,-1.305 -0.17,-0.459 -0.34,-0.918 -0.509,-1.377 C -4.18,15.566 -4.357,15.086 -4.535,14.607 -4.719,14.11 -4.902,13.613 -5.086,13.116 L -5.653,11.584 C -5.847,11.062 -6.04,10.541 -6.232,10.019 -6.428,9.49 -6.624,8.96 -6.82,8.432 -7.017,7.898 -7.215,7.365 -7.412,6.832 -7.61,6.297 -7.808,5.763 -8.005,5.228 -8.202,4.696 -8.399,4.164 -8.596,3.632 -8.791,3.105 -8.985,2.579 -9.18,2.052 -9.372,1.535 -9.563,1.017 -9.755,0.5 c -0.187,-0.506 -0.374,-1.012 -0.561,-1.518 -0.182,-0.49 -0.363,-0.98 -0.544,-1.47 -0.175,-0.471 -0.349,-0.943 -0.524,-1.415 -0.166,-0.45 -0.333,-0.899 -0.499,-1.349 -0.158,-0.424 -0.314,-0.849 -0.471,-1.274 -0.147,-0.395 -0.293,-0.792 -0.44,-1.188 l -0.405,-1.093 c -0.122,-0.329 -0.243,-0.659 -0.365,-0.988 -0.108,-0.291 -0.216,-0.582 -0.324,-0.873 -0.092,-0.25 -0.184,-0.5 -0.277,-0.749 -0.076,-0.206 -0.151,-0.411 -0.227,-0.616 -0.058,-0.156 -0.116,-0.313 -0.174,-0.469 -0.039,-0.106 -0.078,-0.211 -0.117,-0.317 -0.019,-0.052 -0.038,-0.102 -0.062,-0.166 -0.881,-2.536 0.443,-5.311 2.953,-6.2 2.515,-0.893 5.274,0.441 6.156,2.978 l 2.477,7.119 h 19.912 l 2.475,-7.119 c 0.884,-2.537 3.643,-3.871 6.154,-2.978 2.514,0.889 3.838,3.664 2.954,6.2"
             style="fill:#f9e000;fill-opacity:1;fill-rule:nonzero;stroke:none"
             id="path42" /></g></g></g></g></svg>
